<?xml version="1.0" standalone="no"?><!DOCTYPE svg PUBLIC "-//W3C//DTD SVG 1.1//EN" "http://www.w3.org/Graphics/SVG/1.1/DTD/svg11.dtd"><svg t="1574014818775" class="icon" viewBox="0 0 1024 1024" version="1.1" xmlns="http://www.w3.org/2000/svg" p-id="6116" xmlns:xlink="http://www.w3.org/1999/xlink" width="200" height="200"><defs><style type="text/css"></style></defs><path d="M512 1024C229.230208 1024 0 794.769802 0 512 0 229.230198 229.230208 0 512 0 794.769791 0 1024 229.230198 1024 512 1024 794.769802 794.769791 1024 512 1024ZM512 971.487179C765.767761 971.487179 971.487179 765.767759 971.487179 512 971.487179 258.232241 765.767761 52.512821 512 52.512821 258.232238 52.512821 52.512821 258.232241 52.512821 512 52.512821 765.767759 258.232238 971.487179 512 971.487179ZM354.461538 420.102564C390.714077 420.102564 420.102564 390.714079 420.102564 354.461538 420.102564 318.208998 390.714077 288.820513 354.461538 288.820513 318.209 288.820513 288.820513 318.208998 288.820513 354.461538 288.820513 390.714079 318.209 420.102564 354.461538 420.102564ZM512 866.461538C707.763701 866.461538 866.461538 683.846157 866.461538 577.641026 866.461538 477.653832 707.763701 577.641026 512 577.641026 316.236299 577.641026 157.538462 475.717947 157.538462 577.641026 157.538462 686.65386 316.236299 866.461538 512 866.461538ZM669.538462 420.102564C705.791 420.102564 735.179487 390.714079 735.179487 354.461538 735.179487 318.208998 705.791 288.820513 669.538462 288.820513 633.285923 288.820513 603.897436 318.208998 603.897436 354.461538 603.897436 390.714079 633.285923 420.102564 669.538462 420.102564ZM236.307692 603.897436C236.307692 589.396414 247.250346 581.93836 260.737113 586.78805 260.737113 586.78805 359.509614 630.153846 517.942309 630.153846 676.375001 630.153846 763.374503 587.518293 763.374503 587.518293 776.804856 582.063235 787.692308 589.295327 787.692308 603.897436 787.692308 618.398457 779.832816 639.189675 769.226904 648.423083 769.226904 648.423083 737.429488 708.923077 514.352564 708.923077 291.275642 708.923077 254.816705 647.635285 254.816705 647.635285 244.59446 637.980567 236.307692 618.499545 236.307692 603.897436Z" p-id="6117" fill="#bec3d3"></path></svg>