<?xml version="1.0" standalone="no"?><!DOCTYPE svg PUBLIC "-//W3C//DTD SVG 1.1//EN" "http://www.w3.org/Graphics/SVG/1.1/DTD/svg11.dtd"><svg t="1574014515743" class="icon" viewBox="0 0 1024 1024" version="1.1" xmlns="http://www.w3.org/2000/svg" p-id="3570" width="200" height="200" xmlns:xlink="http://www.w3.org/1999/xlink"><defs><style type="text/css"></style></defs><path d="M512 512m-42.666667 0a42.666667 42.666667 0 1 0 85.333334 0 42.666667 42.666667 0 1 0-85.333334 0Z" p-id="3571" fill="#FFFFFF"></path><path d="M682.666667 512m-42.666667 0a42.666667 42.666667 0 1 0 85.333333 0 42.666667 42.666667 0 1 0-85.333333 0Z" p-id="3572" fill="#FFFFFF"></path><path d="M341.333333 512m-42.666666 0a42.666667 42.666667 0 1 0 85.333333 0 42.666667 42.666667 0 1 0-85.333333 0Z" p-id="3573" fill="#FFFFFF"></path><path d="M813.653333 210.346667a426.666667 426.666667 0 0 0-694.613333 469.333333 45.226667 45.226667 0 0 1 3.84 27.306667L85.333333 887.466667a42.666667 42.666667 0 0 0 11.52 38.826666A42.666667 42.666667 0 0 0 128 938.666667h8.533333l182.613334-36.693334a53.76 53.76 0 0 1 27.306666 3.84 426.666667 426.666667 0 0 0 469.333334-694.613333z m35.413334 356.693333a341.333333 341.333333 0 0 1-469.333334 259.413333 139.093333 139.093333 0 0 0-53.333333-11.093333 146.346667 146.346667 0 0 0-23.893333 2.133333l-120.32 24.32 24.32-120.32a131.84 131.84 0 0 0-8.96-77.226666 341.333333 341.333333 0 0 1 259.413333-469.333334 341.333333 341.333333 0 0 1 392.106667 392.106667z" p-id="3574" fill="#FFFFFF"></path></svg>